<svg width="172" height="63" viewBox="0 0 172 63" xmlns="http://www.w3.org/2000/svg"><title>GP_HTL_RGB</title><g fill="none" fill-rule="evenodd"><path fill="#FF555F" d="M45 15.954l-11.35 8.034-11.148-7.906L11.338 24 0 15.959 22.502 0 45 15.954"/><path fill="#25A5BD" d="M11.589 39.44V23.894L0 16v31.333L23 63V47.212L11.589 39.44M23 48h11V32H23z"/><path fill="#1E2C4C" d="M23 63l23-15.5V32L23 47.38V63"/><path fill="#FF555F" d="M34.448 40L23 31.977 34.394 24 46 31.988 34.448 40"/><path d="M69.1 36.604c2.388 0 4.37-2.042 4.37-4.601 0-2.56-1.982-4.601-4.37-4.601-2.352 0-4.335 2.041-4.335 4.6 0 2.56 1.983 4.602 4.336 4.602zm-3.83 3.661c.705 1.36 2.117 2.3 3.73 2.3 2.353 0 4.235-1.976 4.235-4.406v-.162l-.067-.032c-1.31 1.263-2.992 2.041-4.874 2.041-4.033 0-7.294-3.596-7.294-8.003C61 27.564 64.261 24 68.294 24c1.882 0 3.563.778 4.874 2.074l.067-.033v-1.62H77v13.738C77 42.501 73.672 46 69.168 46c-3.025 0-5.647-1.555-7.058-3.92l3.16-1.815zm24.705-10.37l.033-.065c-.832-1.49-2.295-2.494-3.991-2.494-1.763 0-3.127.94-4.025 2.494l.033.065h7.95zm-.433 5.214l2.595 2.494C90.64 39.093 88.545 40 86.249 40 81.66 40 78 36.437 78 32c0-4.437 3.56-8 8.017-8A7.97 7.97 0 0 1 94 32c0 .713-.067.907-.067.907H81.726c0 1.684 2.029 3.66 4.357 3.66 1.364 0 2.561-.583 3.46-1.458zm10.102-2.893V40H96V24.432h3.644v1.896l.066.034c1.236-1.563 2.896-2.362 4.62-2.362 6.507 0 6.67 6.054 6.67 7.917V40h-3.644v-7.784c0-1.863-.033-4.724-3.807-4.724-2.147 0-3.905 2.096-3.905 4.724m21.272-4.748c-2.415 0-4.36 2.082-4.36 4.658 0 2.61 1.945 4.69 4.36 4.69 2.348 0 4.327-2.08 4.327-4.69 0-2.576-1.979-4.658-4.327-4.658zm.805 12.85c-1.912 0-3.555-.76-4.897-2.114l-.068.033V46H113V24.43h3.756v1.618l.068.033c1.342-1.288 2.985-2.081 4.897-2.081 4.025 0 7.279 3.634 7.279 8.16 0 4.525-3.254 8.159-7.279 8.159zm16.379-3.752c2.388 0 4.337-2.008 4.337-4.566 0-2.559-1.95-4.6-4.336-4.6-2.353 0-4.336 2.041-4.336 4.6 0 2.558 1.983 4.566 4.336 4.566zM137.295 24c1.882 0 3.563.778 4.874 2.073l.067-.033v-1.62H146v15.16h-3.765v-1.555l-.067-.065c-1.31 1.263-2.992 2.041-4.874 2.041-4.033 0-7.294-3.563-7.294-8 0-4.437 3.26-8 7.294-8zM162 37.603A8.202 8.202 0 0 1 156.17 40c-4.546 0-8.17-3.563-8.17-8 0-4.437 3.624-8 8.17-8 2.272 0 4.348.907 5.83 2.397l-2.602 2.396a4.364 4.364 0 0 0-3.228-1.392c-2.504 0-4.48 2.072-4.48 4.599 0 2.526 1.976 4.566 4.48 4.566a4.54 4.54 0 0 0 3.294-1.425L162 37.603m7.386-10.284V39h-3.772V27.319H163v-3.505h2.614V17h3.772v6.814H172v3.505h-2.614" fill="#25A5BD"/></g></svg>